<?xml version="1.0" encoding="UTF-8"?>
<svg id="Layer_2" data-name="Layer 2" xmlns="http://www.w3.org/2000/svg" viewBox="0 0 723.03 352.59">
  <defs>
    <style>
      .cls-1 {
        fill: #f5f5f9;
      }
    </style>
  </defs>
  <g id="Layer_1-2" data-name="Layer 1">
    <path class="cls-1" d="M140.33,299.46c-3.04,0-5.94-.31-8.69-.93-2.76-.62-5.18-1.61-7.26-2.98-2.09-1.36-3.74-3.09-4.95-5.18-1.21-2.09-1.82-4.57-1.82-7.46,0-.26.01-.54.04-.85s.04-.54.04-.7h10.9c0,.16-.01.36-.04.62s-.04.49-.04.7c0,1.7.48,3.13,1.43,4.29.95,1.16,2.32,2.04,4.1,2.63s3.88.89,6.3.89c1.55,0,2.94-.09,4.17-.27,1.24-.18,2.31-.45,3.21-.81s1.66-.8,2.28-1.31,1.07-1.08,1.35-1.7c.28-.62.43-1.31.43-2.09,0-1.65-.59-2.98-1.78-3.98s-2.76-1.83-4.71-2.47c-1.96-.64-4.11-1.26-6.45-1.85-2.35-.59-4.69-1.26-7.03-2.01-2.35-.75-4.5-1.7-6.45-2.86-1.96-1.16-3.53-2.68-4.71-4.56-1.19-1.88-1.78-4.21-1.78-6.99,0-2.58.54-4.8,1.62-6.68s2.61-3.44,4.6-4.68c1.98-1.24,4.28-2.15,6.88-2.74s5.42-.89,8.46-.89c3.92,0,7.46.54,10.63,1.62s5.71,2.76,7.61,5.02c1.91,2.27,2.86,5.2,2.86,8.81v.93h-10.74v-.7c0-1.39-.43-2.59-1.28-3.59s-2.05-1.79-3.59-2.36c-1.55-.57-3.35-.85-5.41-.85-2.22,0-4.11.21-5.68.62s-2.78,1.03-3.63,1.85-1.28,1.8-1.28,2.94c0,1.44.59,2.62,1.78,3.52,1.18.9,2.76,1.67,4.71,2.32,1.96.64,4.12,1.25,6.49,1.82s4.71,1.21,7.03,1.93,4.47,1.67,6.45,2.86c1.98,1.19,3.56,2.69,4.71,4.52,1.16,1.83,1.74,4.11,1.74,6.84,0,4.07-.97,7.33-2.9,9.78s-4.6,4.23-8,5.33c-3.4,1.11-7.26,1.66-11.59,1.66h0ZM205.84,298.53v-53.02h27.2c3.81,0,6.99.7,9.54,2.09,2.55,1.39,4.48,3.36,5.8,5.91,1.31,2.55,1.97,5.58,1.97,9.08s-.67,6.54-2.01,9.12-3.34,4.59-5.99,6.03-5.91,2.16-9.78,2.16h-15.77v18.63h-10.97,0ZM216.81,270.79h14.76c2.47,0,4.38-.72,5.72-2.16s2.01-3.43,2.01-5.95-.66-4.56-1.97-5.95-3.23-2.09-5.76-2.09h-14.76v16.15h0ZM316.48,299.46c-8.4,0-14.99-2.25-19.79-6.76-4.79-4.51-7.19-11.4-7.19-20.67s2.4-16.16,7.19-20.67,11.39-6.76,19.79-6.76,15.01,2.26,19.82,6.76c4.82,4.51,7.23,11.4,7.23,20.67s-2.41,16.17-7.23,20.67c-4.82,4.51-11.43,6.76-19.82,6.76ZM316.48,290.42c3.45,0,6.35-.66,8.69-1.97s4.12-3.26,5.33-5.84,1.82-5.74,1.82-9.51v-2.09c0-3.81-.61-7.01-1.82-9.58-1.21-2.58-2.99-4.52-5.33-5.84-2.35-1.31-5.24-1.97-8.69-1.97s-6.26.66-8.58,1.97c-2.32,1.31-4.08,3.26-5.29,5.84-1.21,2.58-1.82,5.77-1.82,9.58v2.09c0,3.76.61,6.93,1.82,9.51,1.21,2.58,2.98,4.52,5.29,5.84,2.32,1.31,5.18,1.97,8.58,1.97ZM386.63,298.53v-53.02h28.6c3.92,0,7.16.68,9.74,2.05s4.52,3.3,5.84,5.8c1.31,2.5,1.97,5.4,1.97,8.69s-.79,6.51-2.36,9.16c-1.57,2.66-3.83,4.65-6.76,5.99l10.9,21.33h-12.06l-9.51-19.48h-15.38v19.48h-10.98ZM397.61,270.17h16.38c2.42,0,4.3-.71,5.64-2.13s2.01-3.39,2.01-5.91-.66-4.29-1.97-5.6-3.21-1.97-5.68-1.97h-16.38v15.61h0ZM488,298.53v-43.74h-17v-9.27h44.98v9.27h-17v43.74h-10.98ZM577.86,299.46c-3.04,0-5.94-.31-8.69-.93-2.76-.62-5.18-1.61-7.26-2.98-2.09-1.36-3.74-3.09-4.95-5.18s-1.82-4.57-1.82-7.46c0-.26.01-.54.04-.85.03-.31.04-.54.04-.7h10.9c0,.16-.01.36-.04.62-.03.26-.04.49-.04.7,0,1.7.48,3.13,1.43,4.29s2.32,2.04,4.1,2.63c1.78.59,3.88.89,6.3.89,1.55,0,2.94-.09,4.17-.27,1.24-.18,2.31-.45,3.21-.81s1.66-.8,2.28-1.31c.62-.51,1.07-1.08,1.35-1.7.28-.62.43-1.31.43-2.09,0-1.65-.59-2.98-1.78-3.98s-2.76-1.83-4.71-2.47c-1.96-.64-4.11-1.26-6.45-1.85-2.35-.59-4.69-1.26-7.03-2.01-2.35-.75-4.5-1.7-6.45-2.86-1.96-1.16-3.53-2.68-4.71-4.56-1.19-1.88-1.78-4.21-1.78-6.99,0-2.58.54-4.8,1.62-6.68s2.61-3.44,4.6-4.68c1.98-1.24,4.28-2.15,6.88-2.74s5.42-.89,8.46-.89c3.92,0,7.46.54,10.63,1.62s5.71,2.76,7.61,5.02c1.91,2.27,2.86,5.2,2.86,8.81v.93h-10.74v-.7c0-1.39-.43-2.59-1.28-3.59s-2.05-1.79-3.59-2.36c-1.55-.57-3.35-.85-5.41-.85-2.22,0-4.11.21-5.68.62s-2.78,1.03-3.63,1.85-1.28,1.8-1.28,2.94c0,1.44.59,2.62,1.78,3.52,1.18.9,2.76,1.67,4.71,2.32,1.96.64,4.12,1.25,6.49,1.82s4.71,1.21,7.03,1.93,4.47,1.67,6.45,2.86c1.98,1.19,3.56,2.69,4.71,4.52,1.16,1.83,1.74,4.11,1.74,6.84,0,4.07-.97,7.33-2.9,9.78-1.93,2.45-4.6,4.23-8,5.33-3.4,1.11-7.26,1.66-11.59,1.66h0ZM118.81,206.93V55.64h138.49l-10.06,19.76c-3.19,6.26-9.61,10.2-16.63,10.2h-74.14v39.2h65.57l-9.24,18.19c-3.18,6.27-9.61,10.21-16.64,10.21h-39.69v53.73h-37.66,0ZM392.02,206.93V55.64h37.66v151.29h-37.66ZM463.59,206.93V55.64h86.55c11.16,0,20.48,2.09,27.97,6.28,7.49,4.18,13.07,9.84,16.74,16.96,3.67,7.12,5.51,15.23,5.51,24.33,0,9.84-2.2,18.54-6.61,26.1-4.4,7.56-10.72,13.4-18.94,17.51l30.61,60.12h-30.09c-7.18,0-13.72-4.12-16.83-10.59l-15.42-32.16c-3.22-6.71-10-10.98-17.44-10.98h-24.38v53.73h-37.67ZM501.25,124.78h42.46c5.75,0,10.24-1.79,13.47-5.39,3.23-3.59,4.85-8.55,4.85-14.87,0-5.89-1.62-10.52-4.85-13.9-3.23-3.37-7.73-5.07-13.47-5.07h-42.46v39.23ZM267.76,86.22l-61.46,120.71h30.09c7.18,0,13.72-4.12,16.83-10.59l8.96-18.7h58.26v29.29h37.66V55.64h-40.45c-21.06,0-40.34,11.82-49.89,30.59h0ZM276.13,148.57l24.7-51.52c3.62-7.55,11.25-12.35,19.62-12.35h0v63.86h-44.32ZM31.74,1.8l-11.26,31.21c-1.36,3.76-1.16,7.91.54,11.54l8.65,18.41c.41.87,1.45,1.25,2.32.84l18.41-8.65c3.62-1.7,6.42-4.77,7.78-8.54l11.26-31.21c.82-2.28-1.52-4.42-3.72-3.39l-18.12,8.51c-.87.41-1.91.03-2.32-.84L36.77,1.56c-1.03-2.19-4.2-2.05-5.02.23h0ZM9.35,73.2l-5.62,32.7c-.68,3.94.24,8,2.55,11.26l11.74,16.61c.56.79,1.65.98,2.44.42l16.61-11.74c3.27-2.31,5.49-5.82,6.16-9.77l5.62-32.7c.41-2.39-2.27-4.08-4.25-2.68l-16.35,11.55c-.79.56-1.88.37-2.44-.42l-11.55-16.35c-1.4-1.98-4.49-1.28-4.9,1.11h-.01ZM0,151.06l.24,33.18c.03,4,1.65,7.83,4.5,10.64l14.49,14.28c.69.68,1.79.67,2.47-.02l14.28-14.49c2.81-2.85,4.37-6.7,4.34-10.7l-.24-33.18c-.02-2.42-2.96-3.62-4.66-1.89l-14.05,14.26c-.68.69-1.78.7-2.47.02l-14.26-14.05c-1.73-1.7-4.65-.47-4.63,1.96h0ZM4.03,229.39l6.05,32.62c.73,3.94,2.99,7.42,6.29,9.69l16.76,11.52c.8.55,1.88.34,2.43-.45l11.52-16.76c2.27-3.3,3.13-7.36,2.4-11.3l-6.05-32.62c-.44-2.38-3.55-3.04-4.92-1.05l-11.34,16.5c-.55.8-1.63,1-2.43.45l-16.5-11.34c-2-1.37-4.66.35-4.22,2.74h.01ZM20.68,304.39l11.56,31.1c1.39,3.75,4.22,6.8,7.86,8.46l18.49,8.47c.88.4,1.91.02,2.32-.86l8.47-18.49c1.67-3.64,1.82-7.79.43-11.54l-11.56-31.1c-.84-2.27-4.02-2.39-5.03-.19l-8.34,18.2c-.4.88-1.44,1.26-2.32.86l-18.2-8.34c-2.2-1.01-4.53,1.15-3.68,3.42h0ZM686.25,1.57l-8.51,18.12c-.41.87-1.45,1.25-2.32.84l-18.12-8.51c-2.19-1.03-4.54,1.11-3.72,3.39l11.26,31.21c1.36,3.76,4.16,6.84,7.78,8.54l18.41,8.65c.87.41,1.91.03,2.32-.84l8.65-18.41c1.7-3.62,1.9-7.77.54-11.54l-11.26-31.21c-.82-2.28-3.99-2.43-5.02-.23h-.01ZM708.76,72.09l-11.55,16.35c-.56.79-1.65.98-2.44.42l-16.35-11.55c-1.98-1.4-4.66.29-4.25,2.68l5.62,32.7c.68,3.94,2.9,7.46,6.16,9.77l16.61,11.74c.79.56,1.88.37,2.44-.42l11.74-16.61c2.31-3.27,3.23-7.32,2.55-11.26l-5.62-32.7c-.41-2.39-3.51-3.09-4.9-1.11h0ZM718.39,149.1l-14.26,14.05c-.69.68-1.79.67-2.47-.02l-14.05-14.26c-1.7-1.73-4.64-.53-4.66,1.89l-.24,33.18c-.03,4,1.53,7.85,4.34,10.7l14.28,14.49c.68.69,1.78.7,2.47.02l14.49-14.28c2.85-2.81,4.47-6.64,4.5-10.64l.24-33.18c.02-2.42-2.9-3.66-4.63-1.96h-.01ZM714.77,226.65l-16.5,11.34c-.8.55-1.88.34-2.43-.45l-11.34-16.5c-1.37-2-4.48-1.34-4.92,1.05l-6.05,32.62c-.73,3.93.13,8,2.4,11.3l11.52,16.76c.55.8,1.63,1,2.43.45l16.76-11.52c3.3-2.27,5.56-5.75,6.29-9.69l6.05-32.62c.44-2.38-2.22-4.11-4.22-2.74h0ZM698.65,300.97l-18.2,8.34c-.88.4-1.91.02-2.32-.86l-8.34-18.2c-1.01-2.2-4.18-2.09-5.03.19l-11.56,31.1c-1.39,3.75-1.24,7.9.43,11.54l8.47,18.49c.4.88,1.44,1.26,2.32.86l18.49-8.47c3.64-1.67,6.47-4.71,7.86-8.46l11.56-31.1c.84-2.27-1.48-4.43-3.68-3.42h0Z"/>
  </g>
</svg>