<?xml version="1.0" encoding="UTF-8"?>
<svg id="Layer_1" data-name="Layer 1" xmlns="http://www.w3.org/2000/svg" viewBox="0 0 686.54 686.54">
  <defs>
    <style>
      .cls-1 {
        fill: #050609;
      }
    </style>
  </defs>
  <path class="cls-1" d="M244.66,165.51h270.48c2.06,0,3.39,2.17,2.45,4l-15,29.46c-12.56,24.66-37.89,40.19-65.57,40.19h-192.36c-1.52,0-2.75-1.23-2.75-2.75v-68.15c0-1.52,1.23-2.75,2.75-2.75ZM244.66,309.04h197.21c2.05,0,3.39,2.17,2.46,4l-13,25.6c-12.54,24.7-37.9,40.27-65.6,40.27h-121.07c-1.52,0-2.75-1.23-2.75-2.75v-64.36c0-1.52,1.23-2.75,2.75-2.75ZM314.15,518.27v-66.74c0-1.52-1.23-2.75-2.75-2.75h-66.74c-1.52,0-2.75,1.23-2.75,2.75v66.74c0,1.52,1.23,2.75,2.75,2.75h66.74c1.52,0,2.75-1.23,2.75-2.75Z"/>
</svg>